{"title":"Law Abiding Citizen 2009 DVDRip Xvid BigPerm LKRG","uid":6948290,"size":1160807594,"categoryP":"video","categoryS":"movies","magnet":"?xt=urn:btih:7286e7f5e4a23ab88ea9c30ab79aa1e6f54db497&amp;dn=Law+Abiding+Citizen+2009+DVDRip+Xvid+BigPerm+LKRG&amp;tr=udp%3A%2F%2Ftracker.openbittorrent.com%3A80&amp;tr=udp%3A%2F%2Fopen.demonii.com%3A1337&amp;tr=udp%3A%2F%2Ftracker.coppersurfer.tk%3A6969&amp;tr=udp%3A%2F%2Fexodus.desync.com%3A6969","seeders":0,"leechers":1,"uploader":".BONE.","files":2,"time":1326310205,"description":"PLOT\n\nA frustrated man decides to take justice into his own hands after a plea bargain sets\none of his family's killers free. He targets not only the killer but also the district attorney and others\ninvolved in the deal.\n\n\nEncoded By .......: BigPerm\nRuntime ..........: 1h 58mn\nFile Size ........: 1.08 GB\nResolution .......: 656 x 272 &lt;a href=&quot;\nhttp://www.imdb.com/title/tt1197624/&quot; rel=&quot;nofollow&quot; target=&quot;_NEW&quot;&gt;\nhttp://www.imdb.com/title/tt1197624/&lt;/a&gt;\nGenre ............: Crime,Drama,Thriller\nLanguage .........: English\nSubtitles ........: None\nVideo\nID : 0\nFormat : MPEG-4 Visual\nFormat profile : Advanced Simple@L5\nFormat settings, BVOP : Yes\nFormat settings, QPel : No\nFormat settings, GMC : No warppoints\nFormat settings, Matrix : Default (H.263)\nMuxing mode : Packed bitstream\nCodec ID : XVID\nCodec ID/Hint : XviD\nDuration : 1h 58mn\nBit rate : 853 Kbps\nWidth : 656 pixels\nHeight : 272 pixels\nDisplay aspect ratio : 2.40:1\nFrame rate : 23.976 fps\nColor space : YUV\nChroma subsampling : 4:2:0\nBit depth : 8 bits\nScan type : Progressive\nCompression mode : Lossy\nBits/(Pixel*Frame) : 0.199\nStream size : 721 MiB (65%)\nWriting library : XviD 64\nAudio\nID : 1\nFormat : AC-3\nFormat/Info : Audio Coding 3\nMode extension : CM (complete main)\nCodec ID : 2000\nDuration : 1h 58mn\nBit rate mode : Constant\nBit rate : 448 Kbps\nChannel(s) : 6 channels\nChannel positions : Front: L C R, Side: L R, LFE\nSampling rate : 48.0 KHz\nBit depth : 16 bits\nCompression mode : Lossy\nStream size : 378 MiB (34%)\nAlignment : Split accross interleaves\nInterleave, duration : 42 ms (1.00 video frame)\nInterleave, preload duration : 500 ms\n &lt;a href=&quot;\nhttp://www.shotpix.com/images/77122918756938103073.png&quot; rel=&quot;nofollow&quot; target=&quot;_NEW&quot;&gt;\nhttp://www.shotpix.com/images/77122918756938103073.png&lt;/a&gt; &lt;a href=&quot;\nhttp://www.shotpix.com/images/97935575430816233399.png&quot; rel=&quot;nofollow&quot; target=&quot;_NEW&quot;&gt;\nhttp://www.shotpix.com/images/97935575430816233399.png&lt;/a&gt; &lt;a href=&quot;\nhttp://www.shotpix.com/images/18172861242171466395.png&quot; rel=&quot;nofollow&quot; target=&quot;_NEW&quot;&gt;\nhttp://www.shotpix.com/images/18172861242171466395.png&lt;/a&gt; &lt;a href=&quot;\nhttp://www.shotpix.com/images/67048994535446978950.png&quot; rel=&quot;nofollow&quot; target=&quot;_NEW&quot;&gt;\nhttp://www.shotpix.com/images/67048994535446978950.png&lt;/a&gt; &lt;a href=&quot;\nhttp://www.shotpix.com/images/67566060564849648914.png&quot; rel=&quot;nofollow&quot; target=&quot;_NEW&quot;&gt;\nhttp://www.shotpix.com/images/67566060564849648914.png&lt;/a&gt;\n\n","torrent":{"xt":"urn:btih:7286e7f5e4a23ab88ea9c30ab79aa1e6f54db497","amp;dn":"Law+Abiding+Citizen+2009+DVDRip+Xvid+BigPerm+LKRG","amp;tr":["udp%3A%2F%2Ftracker.openbittorrent.com%3A80","udp%3A%2F%2Fopen.demonii.com%3A1337","udp%3A%2F%2Ftracker.coppersurfer.tk%3A6969","udp%3A%2F%2Fexodus.desync.com%3A6969"],"infoHash":"7286e7f5e4a23ab88ea9c30ab79aa1e6f54db497","infoHashBuffer":{"type":"Buffer","data":[114,134,231,245,228,162,58,184,142,169,195,10,183,154,161,230,245,77,180,151]},"announce":[],"urlList":[]}}